<svg role="img" viewBox="0 0 24 24" xmlns="http://www.w3.org/2000/svg" fill="white">
  <title>Twitter</title>
  <path d="M23.954 4.569a10 10 0 0 1-2.825.775 4.958 4.958 0 0 0 2.163-2.723 9.92 9.92 0 0 1-3.127 1.195 4.92 4.92 0 0 0-8.384 4.482A13.978 13.978 0 0 1 1.671 3.149a4.822 4.822 0 0 0-.666 2.475c0 1.708.87 3.215 2.188 4.099a4.904 4.904 0 0 1-2.229-.616v.061a4.925 4.925 0 0 0 3.946 4.827 4.996 4.996 0 0 1-2.224.085 4.936 4.936 0 0 0 4.604 3.417 9.867 9.867 0 0 1-6.102 2.105c-.396 0-.788-.023-1.177-.068a13.945 13.945 0 0 0 7.557 2.212c9.054 0 14-7.496 14-13.986 0-.21 0-.42-.015-.63a10.025 10.025 0 0 0 2.46-2.548l.002-.003z"></path>
</svg>
